<?xml version="1.0" encoding="UTF-8"?>
<svg id="Layer_1" data-name="Layer 1" xmlns="http://www.w3.org/2000/svg" viewBox="0 0 299.35 229.69">
  <defs>
    <style>
      .cls-1 {
        fill: #a45eef;
      }

      .cls-2 {
        fill: #8a2be2;
      }
    </style>
  </defs>
  <path class="cls-2" d="M294.07,125.11l1.23,8.4,2.62,18.66.96,6.22c2.24,14.53-3.55,28.24-15.82,37.67s-27.1,11.54-42.33,10.46c-5.49,5.5-11.14,9.92-17.59,13.78l-2.85,2.22c-14.81,4.64-30.05,8.42-45.9,6.78l-3.63-.89c-9.49-1.25-18.01-4.59-26.17-10.17-12.02,5.97-24.4,8.38-36.74,9.23-15.29,1.05-28.42-3.77-42.66-8.06l-2.69-2.86c-5.28-3.68-10.29-8.97-14.44-13.86-8.41-1.51-17.03-2.89-24.89-5.87-13.65-5.75-21.86-17.08-22.94-31.38l-.23-6.07c.87-7.63,2.41-16.87,4.24-24.48l2.13-8.87c6.19-25.81,22.87-79.27,36.29-99.31,10.52-15.7,30.42-20.78,46.99-12.52,16.98-17.51,45.69-18.07,65.07-5.83,21.11-13.61,50.86-9.84,68.9,6.83,29.55-7.47,43.56,10.61,51.7,37.33,7.35,24.13,15.18,48.15,18.75,72.59ZM114.88,11.38l-3.37,8.45c-3.25,7,.29,15.08-1.1,20.56-.21.84-3.28-.46-3.73-1.31-4-7.49-11.47-14.47-19.17-18.28-5.94-2.94-10.34-3.35-16.11-3.23-9.13.18-18.65,4.9-23.94,14.02C29.9,61.88,13.57,119.82,7.1,155.67c-1.78,9.85.93,19.97,6.78,26.25,6.86,7.36,15.65,11.48,27.09,12.32l9.45-41.15c4.54-19.76,14.33-54.53,29.73-64.07,2.01-2.28,3.93-4.67,6.76-6.62-9.91,24.66-17.87,48.51-23.46,74.26l-9.13,42c6.04,11.13,21.9,18.99,34.77,20.3,3.66.37,11.17-2.44,14-4.67,12.17-9.57,17.89-21.57,20.3-36.97l8.53-54.56c2.9-18.55,6.26-51.65-7.66-56.97-5.63-2.15-12.24-.21-16.73,2.21-3.36,1.82-7.57,4.1-9.77,7.2l-4.22.55c-3.71.25-2.88-16.63-15.92-25.15-5.33-3.48-12.07-2.18-19.4-2.67,6.87-7.14,18.31-6.2,25.57-.98,6.31,4.53,9.58,11.3,12.52,18.96l12.75-6.48c-1.84-2.19-4-5.71-3.64-8.49.31-2.37,3.89-4.9,6.1-6.51,9.48-6.9,18.9-11.15,30.78-12.21,22.66-2.01,42.2-2.19,62.15,9.24,6.16,3.53,11.99,8.19,16.22,14.05,6.21-4.15,13.37-6.53,21.48-7.2-5.15-1.57-10.6-1.79-16.7-1.61-1.04-10.76,3.79-19.97,11.77-26.29-17.19-1.32-22.68,6.98-31.96,18.31-8.04-3.38-15.79-6.65-24.45-8.09-7.27-1.2-15.28-.46-23.04-.78-.85-4.23-1.16-9.83-3.53-13.08-2.2-2.5-7.72-4.72-10.7-5.3l-3.62-2.89c-14.94-4.05-30.29-2.17-42.56,7.37l-1.16,2.69c-.14.33,1.06.44,1.4.26l1.84-.93c5.38-2.72,10.24-4.96,15.47-6.64ZM188.36,10.34c-7.47-3.03-15.32-2.73-20.74,2.97l20.74-2.97ZM181.3,216.39c-4.44-8.15-7.06-17.2-8.87-26.67-4.57-23.93-5.56-47.73-7.43-72.06-1.4-18.25-3.49-33.56,7.33-51.17-7.89,1.13-13.91,5.94-18.82,11.78-5.11,6.08-2.93,14.23-2.99,21.73l-.36,47.6-1.83,65.1c10.82,7.72,23.16,10.62,37.04,9.62l-4.07-5.94ZM234.04,94.43s-4.63-15.03-4.26-20.18c.36-5.12,1.36-7.12,4.55-9.85,3.5-3,4.02-6.4-3.79-2.88-3.52,1.59-7.12,9.7-3.71,21.37,2.49,8.52,4.46,18,6.12,15.66.38-.54,1.3-3.17,1.09-4.13Z"/>
  <path class="cls-1" d="M225.44,46.75c-1.04-10.76,3.79-19.97,11.77-26.29-17.19-1.32-22.68,6.98-31.96,18.31-8.04-3.38-15.79-6.65-24.45-8.09-7.27-1.2-15.28-.46-23.04-.78-.85-4.23-1.16-9.83-3.53-13.08-2.2-2.5-7.72-4.72-10.7-5.3-9.39-1.82-19.61-3.01-28.64-.13l-3.37,8.45c-3.25,7,.29,15.08-1.1,20.56-.21.84-3.28-.46-3.73-1.31-4-7.49-11.47-14.47-19.17-18.28-5.94-2.94-10.34-3.35-16.11-3.23-9.98,4.08-18.64,11.1-23.39,21.89-11.54,26.24-20.22,53.4-27.6,81.35-3.2,12.13-5.04,23.74-6.96,36.02-1.36,8.68-1.15,17.05.42,25.09,6.86,7.36,15.65,11.48,27.09,12.32l9.45-41.15c4.54-19.76,14.33-54.53,29.73-64.07,2.01-2.28,3.93-4.67,6.76-6.62-9.91,24.66-17.87,48.51-23.46,74.26l-9.13,42c6.04,11.13,21.9,18.99,34.77,20.3,3.66.37,11.17-2.44,14-4.67,12.17-9.57,17.89-21.57,20.3-36.97l8.53-54.56c2.9-18.55,6.26-51.65-7.66-56.97-5.63-2.15-12.24-.21-16.73,2.21,0,0,2.75.72,2.26,2.14-.44,1.27-12.25,10.99-14.69,16.24-16.38,35.28-23.46,78.67-28.61,113-.13.87-1.54,2.67-3.1,2.57-2.75-.18-2.28-3.6-2.28-3.6,3.63-23.29,8.97-45.25,13.62-68.47,3.99-19.89,20.05-50.47,23.03-54.69l-4.22.55c-3.71.25-2.88-16.63-15.92-25.15-5.33-3.48-12.07-2.18-19.4-2.67,6.87-7.14,18.31-6.2,25.57-.98,6.31,4.53,9.58,11.3,12.52,18.96l12.75-6.48c-1.84-2.19-4-5.71-3.64-8.49.31-2.37,3.89-4.9,6.1-6.51,9.48-6.9,18.9-11.15,30.78-12.21,22.66-2.01,42.2-2.19,62.15,9.24,6.16,3.53,11.99,8.19,16.22,14.05,6.21-4.15,13.37-6.53,21.48-7.2-5.15-1.57-10.6-1.79-16.7-1.61Z"/>
  <path class="cls-1" d="M181.3,216.39l4.07,5.94c-13.89,1-26.22-1.9-37.04-9.62l1.83-65.1.36-47.6c.06-7.5-2.12-15.66,2.99-21.73,4.91-5.84,10.93-10.65,18.82-11.78-10.82,17.61-8.73,32.92-7.33,51.17,1.86,24.32,2.86,48.12,7.43,72.06,1.81,9.47,4.43,18.52,8.87,26.67ZM157.85,182.48l-1.25-92.82s-.34-2.65-1.88-2.62c-1.77.04-1.49,2-1.75,2.62l.29,103.65c1.14,2.61,1.77,3.84,3.58,5.48,1.64-6.28,1.55-10.06,1-16.3Z"/>
</svg>