<?xml version="1.0" encoding="UTF-8"?>
<svg id="Layer_1" xmlns="http://www.w3.org/2000/svg" version="1.1" viewBox="0 0 445.11 348.43">
  <!-- Generator: Adobe Illustrator 30.5.1, SVG Export Plug-In . SVG Version: 2.1.4 Build 3)  -->
  <defs>
    <style>
      .st0 {
        fill: #a45eef;
      }

      .st1 {
        fill: #8a2be2;
      }

      .st2 {
        fill: #6d6e71;
      }
    </style>
  </defs>
  <g>
    <path class="st1" d="M340.88,186.09l1.03,7.07,2.2,15.72.81,5.24c1.89,12.24-2.99,23.79-13.32,31.73-9.98,7.67-22.83,9.72-35.66,8.82-4.62,4.63-9.38,8.36-14.82,11.61l-2.4,1.87c-12.48,3.91-25.32,7.09-38.67,5.71l-3.06-.75c-7.99-1.06-15.17-3.86-22.04-8.57-10.13,5.03-20.56,7.06-30.95,7.78-12.88.88-23.94-3.17-35.94-6.79l-2.27-2.41c-4.45-3.1-8.67-7.56-12.17-11.68-7.09-1.27-14.35-2.44-20.97-4.95-11.5-4.85-18.42-14.39-19.32-26.43l-.19-5.11c.74-6.43,2.03-14.21,3.57-20.62l1.79-7.47c5.22-21.74,19.26-66.78,30.57-83.66,8.86-13.22,25.63-17.5,39.59-10.55,14.31-14.75,38.49-15.22,54.81-4.91,17.78-11.47,42.85-8.29,58.05,5.75,24.9-6.29,36.7,8.94,43.55,31.44,6.19,20.32,12.78,40.57,15.8,61.15h.01ZM189.93,90.28l-2.84,7.12c-2.74,5.9.25,12.7-.93,17.32-.18.7-2.76-.39-3.14-1.1-3.37-6.31-9.66-12.19-16.15-15.4-5-2.47-8.71-2.82-13.58-2.72-7.69.15-15.71,4.13-20.17,11.81-14.8,25.51-28.55,74.32-34,104.52-1.5,8.3.78,16.83,5.71,22.12,5.78,6.2,13.18,9.67,22.82,10.38l7.96-34.67c3.82-16.65,12.07-45.94,25.05-53.98,1.7-1.92,3.31-3.94,5.69-5.58-8.35,20.77-15.05,40.87-19.77,62.56l-7.69,35.39c5.09,9.38,18.45,16,29.29,17.1,3.09.31,9.41-2.06,11.8-3.93,10.26-8.06,15.07-18.17,17.1-31.14l7.18-45.97c2.44-15.63,5.27-43.51-6.45-47.99-4.74-1.81-10.32-.18-14.1,1.87-2.83,1.53-6.38,3.45-8.23,6.07l-3.56.46c-3.13.21-2.42-14.01-13.41-21.19-4.49-2.93-10.17-1.83-16.35-2.25,5.79-6.02,15.42-5.22,21.54-.82,5.32,3.82,8.07,9.52,10.55,15.97l10.74-5.46c-1.55-1.85-3.37-4.81-3.06-7.15.26-2,3.28-4.12,5.14-5.48,7.99-5.81,15.92-9.4,25.93-10.28,19.09-1.69,35.55-1.84,52.36,7.79,5.19,2.97,10.1,6.9,13.66,11.84,5.23-3.49,11.26-5.5,18.09-6.06-4.34-1.32-8.93-1.5-14.07-1.35-.87-9.06,3.2-16.83,9.91-22.15-14.48-1.11-19.11,5.88-26.92,15.42-6.78-2.84-13.3-5.61-20.6-6.81-6.13-1.01-12.87-.39-19.41-.66-.71-3.57-.97-8.28-2.97-11.02-1.85-2.11-6.5-3.97-9.02-4.46l-3.05-2.43c-12.58-3.41-25.52-1.82-35.86,6.21l-.97,2.27c-.12.28.89.37,1.18.22l1.55-.78c4.53-2.29,8.62-4.18,13.03-5.59l.02-.02ZM251.82,89.4c-6.3-2.55-12.9-2.3-17.47,2.5l17.47-2.5ZM245.88,262.99c-3.74-6.87-5.95-14.49-7.47-22.47-3.85-20.16-4.69-40.21-6.26-60.7-1.18-15.37-2.94-28.27,6.17-43.11-6.65.95-11.72,5-15.86,9.92s-2.47,11.99-2.52,18.31l-.31,40.1-1.54,54.84c9.12,6.5,19.51,8.95,31.21,8.1l-3.43-5h0ZM290.31,160.24s-3.9-12.67-3.59-17c.31-4.32,1.15-6,3.83-8.3,2.95-2.53,3.39-5.39-3.19-2.43-2.96,1.34-6,8.17-3.12,18,2.1,7.18,3.76,15.16,5.16,13.19.32-.45,1.09-2.67.92-3.48v.02Z"/>
    <path class="st0" d="M283.06,120.07c-.87-9.06,3.2-16.83,9.91-22.15-14.48-1.11-19.11,5.88-26.92,15.42-6.78-2.84-13.3-5.61-20.6-6.81-6.13-1.01-12.87-.39-19.41-.66-.71-3.57-.97-8.28-2.97-11.02-1.85-2.11-6.5-3.97-9.02-4.46-7.91-1.54-16.52-2.54-24.12-.11l-2.84,7.12c-2.74,5.9.25,12.7-.93,17.32-.18.7-2.76-.39-3.14-1.1-3.37-6.31-9.66-12.19-16.15-15.4-5-2.47-8.71-2.82-13.58-2.72-8.41,3.44-15.71,9.35-19.7,18.44-9.72,22.11-17.04,44.98-23.25,68.53-2.7,10.22-4.25,20-5.86,30.35-1.14,7.31-.97,14.37.36,21.13,5.78,6.2,13.18,9.67,22.82,10.38l7.96-34.67c3.82-16.65,12.07-45.94,25.05-53.98,1.7-1.92,3.31-3.94,5.69-5.58-8.35,20.77-15.05,40.87-19.77,62.56l-7.69,35.39c5.09,9.38,18.45,16,29.29,17.1,3.09.31,9.41-2.06,11.8-3.93,10.26-8.06,15.07-18.17,17.1-31.14l7.18-45.97c2.44-15.63,5.27-43.51-6.45-47.99-4.74-1.81-10.32-.18-14.1,1.87,0,0,2.32.61,1.9,1.81-.37,1.07-10.32,9.26-12.37,13.68-13.8,29.72-19.77,66.27-24.11,95.2-.11.74-1.3,2.25-2.61,2.16-2.32-.15-1.92-3.03-1.92-3.03,3.06-19.62,7.55-38.12,11.48-57.68,3.36-16.76,16.89-42.52,19.4-46.07l-3.56.46c-3.13.21-2.42-14.01-13.41-21.19-4.49-2.93-10.17-1.83-16.35-2.25,5.79-6.02,15.42-5.22,21.54-.82,5.32,3.82,8.07,9.52,10.55,15.97l10.74-5.46c-1.55-1.85-3.37-4.81-3.06-7.15.26-2,3.28-4.12,5.14-5.48,7.99-5.81,15.92-9.4,25.93-10.28,19.09-1.69,35.55-1.84,52.36,7.79,5.19,2.97,10.1,6.9,13.66,11.84,5.23-3.49,11.26-5.5,18.09-6.06-4.34-1.32-8.93-1.5-14.07-1.35h.01Z"/>
    <path class="st0" d="M245.88,262.99l3.43,5c-11.7.84-22.09-1.6-31.21-8.1l1.54-54.84.31-40.1c.05-6.32-1.79-13.19,2.52-18.31s9.21-8.97,15.86-9.92c-9.11,14.84-7.35,27.74-6.17,43.11,1.57,20.49,2.41,40.54,6.26,60.7,1.52,7.98,3.73,15.6,7.47,22.47h0ZM226.12,234.42l-1.05-78.2s-.29-2.23-1.59-2.2c-1.49.03-1.26,1.68-1.47,2.21l.25,87.32c.96,2.2,1.49,3.23,3.02,4.61,1.38-5.29,1.31-8.47.84-13.74h0Z"/>
  </g>
  <g>
    <path class="st2" d="M45.17,12.97l-6.15,6.49-1.22,4.15c1.63,1.87,2.45,4.06,2.45,6.55v31.03c0,5.86-2.08,10.87-6.25,15.05-4.17,4.18-9.21,6.26-15.14,6.26s-11.37-2.4-15.75-7.2c-2.07-2.35-3.11-4.9-3.11-7.63,0-3.12,1.19-5.87,3.56-8.24,2.37-2.37,5.1-3.56,8.17-3.56s5.54,1.2,7.85,3.6v-29.3c0-2.16.62-4.1,1.87-5.83h-1.87l1.02-9-2.91-8.29,8.73-1.65,7.13-5.4,4.25,7.85,7.36,5.12h.01ZM36.66,30.16c0-1.77-.64-3.3-1.91-4.57-1.27-1.27-2.8-1.91-4.57-1.91h-.5c-1.78,0-3.3.64-4.57,1.91s-1.91,2.8-1.91,4.57v32.62c0,.77-.26,1.43-.79,1.98-.53.55-1.18.83-1.94.83-.86,0-1.51-.38-1.94-1.15-.91-1.54-1.39-2.33-1.44-2.38-1.49-1.63-3.34-2.45-5.54-2.45s-4.02.76-5.58,2.27c-1.56,1.51-2.34,3.37-2.34,5.58s.75,3.94,2.24,5.47c.58.72,1.78,1.82,3.61,3.31,2.94,1.78,6.06,2.66,9.38,2.66,4.91,0,9.1-1.73,12.59-5.18,3.49-3.46,5.23-7.63,5.23-12.53v-31.03h-.02ZM34.28,34.41l-.07,24.77c0,4.13-1.45,7.64-4.36,10.55-2.9,2.9-6.42,4.36-10.55,4.36-4.7,0-8.35-1.68-10.94-5.04-.14-.14-.22-.31-.22-.5,0-.43.26-.65.79-.65.19,0,.36.07.5.22s.43.46.86.94c2.3,2.4,5.3,3.6,9,3.6s6.86-1.31,9.5-3.92c2.64-2.62,3.96-5.8,3.96-9.54v-24.77c0-.48.25-.72.76-.72s.76.24.76.72v-.02ZM39.68,13.53l-4.5-3.13-2.79-5.01-4.47,3.39-5.45,1.08,1.8,5.25-.72,5.4h5.6l5.03,2.43,1.64-5.33,3.87-4.08h0ZM33.06,11.51c.1.14.14.26.14.36,0,.48-.26.72-.79.72-.24,0-.43-.12-.58-.36l-1.01-1.8c-1.06.82-1.63,1.25-1.73,1.3s-.82.19-2.16.43c.48,1.34.72,2.11.72,2.3,0-.05-.12.89-.36,2.81-.05.43-.29.65-.72.65-.58,0-.82-.29-.72-.86l.36-2.66c-.62-1.73-.94-2.69-.94-2.88,0-.29.24-.5.72-.65.82-.14,1.66-.29,2.52-.43,1.54-1.2,2.4-1.8,2.59-1.8.24,0,.89.96,1.94,2.88h.02Z"/>
    <path class="st2" d="M78.85,34.27c0,4.99-2.02,8.9-6.05,11.74,1.71.48,3.1,1.45,4.2,2.92,1.09,1.46,1.64,3.11,1.64,4.93,0,2.3-.8,4.25-2.41,5.83s-3.54,2.38-5.8,2.38h-9.86c-5.76,0-10.69-2.05-14.8-6.16-4.1-4.1-6.16-9.06-6.16-14.87s2.05-10.69,6.16-14.8c4.1-4.1,9.04-6.16,14.8-6.16h4.1c3.89,0,7.22,1.39,10.01,4.18,2.78,2.78,4.18,6.12,4.18,10.01h0ZM75.25,34.27c0-2.93-1.03-5.42-3.1-7.49-2.06-2.06-4.56-3.1-7.49-3.1h-4.1c-4.8,0-8.89,1.69-12.28,5.08-3.38,3.38-5.08,7.48-5.08,12.28s1.69,8.96,5.08,12.35c3.38,3.38,7.48,5.08,12.28,5.08h9.86c1.25,0,2.33-.44,3.24-1.33.91-.89,1.37-1.98,1.37-3.28s-.44-2.33-1.33-3.24c-.88-.91-1.97-1.37-3.26-1.37h-9.25c-1.43,0-2.15-.72-2.15-2.16s.72-2.16,2.15-2.16h3.51c2.91,0,5.4-1.03,7.45-3.1,2.05-2.06,3.08-4.58,3.08-7.56h.02ZM68.19,54.28c.48,0,.72.24.72.72s-.24.72-.72.72h-7.85c-4.03,0-7.49-1.43-10.37-4.28-2.88-2.86-4.32-6.3-4.32-10.33,0-.48.24-.72.72-.72s.72.24.72.72c0,3.6,1.3,6.7,3.89,9.29s5.71,3.89,9.36,3.89h7.85,0ZM61.35,37.58c0,1.73-.61,3.2-1.84,4.43-1.22,1.22-2.7,1.84-4.43,1.84s-3.26-.61-4.46-1.84c-1.2-1.22-1.8-2.7-1.8-4.43s.6-3.2,1.8-4.43c1.2-1.22,2.69-1.84,4.46-1.84s3.2.61,4.43,1.84,1.84,2.7,1.84,4.43ZM72.8,35.63c0,.48-.24.72-.72.72s-.72-.24-.72-.72c0-2.11-.77-3.94-2.3-5.47-1.54-1.54-3.36-2.3-5.47-2.3h-3.24c-.48,0-.72-.24-.72-.72s.24-.72.72-.72h3.24c2.54,0,4.72.9,6.52,2.7,1.8,1.8,2.7,3.97,2.7,6.52h0Z"/>
    <path class="st2" d="M98.87,51.91c0,2.78-1,5.16-2.99,7.13s-4.36,2.95-7.09,2.95h-.5c-2.78,0-5.16-.98-7.13-2.95-1.97-1.97-2.95-4.34-2.95-7.13V14.4c0-2.78.98-5.16,2.95-7.13s4.34-2.95,7.13-2.95h.5c2.74,0,5.1.98,7.09,2.95s2.99,4.34,2.99,7.13c0,0,0,37.51,0,37.51ZM95.27,51.91V14.4c0-1.78-.64-3.3-1.91-4.57-1.27-1.27-2.8-1.91-4.57-1.91h-.5c-1.78,0-3.3.64-4.57,1.91s-1.91,2.8-1.91,4.57v37.51c0,1.78.64,3.3,1.91,4.57,1.27,1.27,2.8,1.91,4.57,1.91h.5c1.78,0,3.3-.64,4.57-1.91s1.91-2.8,1.91-4.57ZM93.9,48.16c0,1.63-.58,3.02-1.73,4.18-1.15,1.15-2.54,1.73-4.18,1.73h-.36c-.48,0-.72-.24-.72-.72s.24-.72.72-.72h.36c1.25,0,2.3-.43,3.17-1.3.86-.86,1.3-1.92,1.3-3.17v-30.02c0-1.25-.43-2.3-1.3-3.17-.86-.86-1.92-1.3-3.17-1.3h-.36c-.48,0-.72-.24-.72-.72s.24-.72.72-.72h.36c1.63,0,3.02.58,4.18,1.73,1.15,1.15,1.73,2.54,1.73,4.18v30.02Z"/>
    <path class="st2" d="M118.88,51.91c0,2.78-1,5.16-2.99,7.13s-4.36,2.95-7.09,2.95h-.5c-2.78,0-5.16-.98-7.13-2.95-1.97-1.97-2.95-4.34-2.95-7.13V14.4c0-2.78.98-5.16,2.95-7.13s4.34-2.95,7.13-2.95h.5c2.74,0,5.1.98,7.09,2.95s2.99,4.34,2.99,7.13v37.51ZM115.28,51.91V14.4c0-1.78-.64-3.3-1.91-4.57-1.27-1.27-2.8-1.91-4.57-1.91h-.5c-1.78,0-3.3.64-4.57,1.91s-1.91,2.8-1.91,4.57v37.51c0,1.78.64,3.3,1.91,4.57,1.27,1.27,2.8,1.91,4.57,1.91h.5c1.78,0,3.3-.64,4.57-1.91s1.91-2.8,1.91-4.57ZM113.91,48.16c0,1.63-.58,3.02-1.73,4.18-1.15,1.15-2.54,1.73-4.18,1.73h-.36c-.48,0-.72-.24-.72-.72s.24-.72.72-.72h.36c1.25,0,2.3-.43,3.17-1.3.86-.86,1.3-1.92,1.3-3.17v-30.02c0-1.25-.43-2.3-1.3-3.17-.86-.86-1.92-1.3-3.17-1.3h-.36c-.48,0-.72-.24-.72-.72s.24-.72.72-.72h.36c1.63,0,3.02.58,4.18,1.73,1.15,1.15,1.73,2.54,1.73,4.18v30.02Z"/>
    <path class="st2" d="M161,30.16v31.03c0,5.86-2.09,10.87-6.28,15.05-4.18,4.18-9.23,6.26-15.15,6.26-6.44,0-11.66-2.38-15.65-7.13-2.26-2.21-3.39-4.73-3.39-7.56,0-4.03,1.87-7.32,5.62-9.86-5.28-4.27-7.92-9.79-7.92-16.56v-12.96c0-2.3.8-4.27,2.41-5.9s3.56-2.45,5.87-2.45,4.27.8,5.9,2.41c1.63,1.61,2.45,3.56,2.45,5.87v7.56c0,1.01.5,1.51,1.51,1.51s1.51-.5,1.51-1.51v-5.76c0-2.78.98-5.16,2.95-7.13s4.34-2.95,7.13-2.95h2.95c2.78,0,5.16.98,7.13,2.95s2.95,4.34,2.95,7.13h0ZM157.4,30.16c0-1.77-.64-3.3-1.91-4.57-1.27-1.27-2.8-1.91-4.57-1.91h-2.95c-1.83,0-3.36.64-4.61,1.91s-1.87,2.8-1.87,4.57v5.76c0,1.39-.5,2.59-1.51,3.6s-2.21,1.51-3.6,1.51-2.65-.5-3.64-1.51c-.98-1.01-1.48-2.21-1.48-3.6v-7.56c0-1.3-.47-2.4-1.4-3.31-.94-.91-2.05-1.37-3.35-1.37s-2.4.46-3.31,1.37c-.91.91-1.37,2.02-1.37,3.31v12.96c0,4.9,1.73,9.08,5.18,12.56,3.46,3.48,7.66,5.22,12.6,5.22,1.44,0,2.88-.17,4.32-.5v4.18c0,.77-.26,1.43-.79,1.98-.53.55-1.18.83-1.94.83-.86,0-1.51-.41-1.94-1.22-.86-1.44-1.34-2.21-1.44-2.3-1.49-1.63-3.34-2.45-5.54-2.45s-3.98.74-5.47,2.23c-1.63,1.58-2.45,3.5-2.45,5.76,0,2.11.74,3.89,2.24,5.33.58.72,1.78,1.82,3.61,3.31,2.98,1.78,6.11,2.66,9.38,2.66,4.91,0,9.1-1.73,12.59-5.18,3.49-3.46,5.23-7.63,5.23-12.53v-31.03h-.01ZM128.82,51.4c.1.14.14.29.14.43,0,.48-.26.72-.79.72-.19,0-.38-.1-.58-.29-1.97-2.64-2.95-5.62-2.95-8.93v-10.37c0-.48.24-.72.72-.72s.72.24.72.72v10.37c0,2.98.91,5.66,2.74,8.06h0ZM154.52,58.46c-.24,4.37-1.66,8.02-4.25,10.94-2.78,3.12-6.36,4.68-10.73,4.68-4.66,0-8.31-1.68-10.94-5.04-.1-.14-.14-.31-.14-.5,0-.43.24-.65.72-.65.24,0,.42.07.54.22.12.14.4.46.83.94,2.3,2.4,5.3,3.6,9,3.6,3.98,0,7.22-1.44,9.72-4.32,2.3-2.69,3.58-6.02,3.82-10.01.05-.43.29-.65.72-.65.53,0,.77.26.72.79h-.01ZM154.52,34.41v10.73c0,.48-.24.72-.72.72s-.72-.24-.72-.72v-10.73c0-1.25-.43-2.3-1.3-3.17s-1.92-1.3-3.17-1.3h-.94c-.48,0-.72-.24-.72-.72s.24-.72.72-.72h.94c1.63,0,3.02.58,4.18,1.73,1.15,1.15,1.73,2.54,1.73,4.18h0Z"/>
  </g>
  <g>
    <path class="st2" d="M239.77,296.09v31.03c0,5.86-2.09,10.87-6.28,15.05-4.18,4.18-9.21,6.26-15.08,6.26s-11.35-2.4-15.72-7.2c-2.12-2.35-3.17-4.9-3.17-7.63,0-3.98,1.78-7.22,5.33-9.72-5.23-4.27-7.85-9.79-7.85-16.56,0-5.86,2.09-10.87,6.26-15.05,4.18-4.18,9.22-6.26,15.12-6.26,2.21,0,4.34.34,6.41,1.01,1.39-.67,2.86-1.01,4.39-1.01h.5c2.78,0,5.16.98,7.13,2.95,1.97,1.97,2.95,4.34,2.95,7.13h.01ZM236.17,296.09c0-1.78-.64-3.3-1.91-4.57s-2.8-1.91-4.57-1.91h-.5c-1.49,0-2.81.46-3.96,1.37-2.21-.91-4.49-1.37-6.84-1.37-4.94,0-9.14,1.73-12.6,5.18s-5.18,7.63-5.18,12.53,1.73,9.14,5.2,12.6c3.47,3.46,7.68,5.18,12.64,5.18,1.49,0,2.94-.19,4.33-.58v4.18c0,.77-.28,1.43-.83,1.98s-1.22.83-1.99.83c-.82,0-1.47-.38-1.95-1.15-.92-1.54-1.4-2.33-1.44-2.38-1.49-1.63-3.35-2.45-5.56-2.45s-3.96.76-5.53,2.27c-1.57,1.51-2.35,3.37-2.35,5.58s.72,3.94,2.17,5.47c.58.72,1.78,1.82,3.62,3.31,2.99,1.78,6.15,2.66,9.47,2.66,4.92,0,9.11-1.73,12.58-5.18,3.47-3.46,5.21-7.63,5.21-12.53v-31.03h0ZM207.73,317.62c.1.14.14.29.14.43,0,.48-.24.72-.72.72-.24,0-.43-.1-.58-.29-2.11-2.69-3.17-5.74-3.17-9.14,0-.48.24-.72.72-.72s.72.24.72.72c0,3.07.96,5.83,2.88,8.28h0ZM221.63,303.51c0,1.73-.61,3.2-1.84,4.43-1.22,1.22-2.7,1.84-4.43,1.84s-3.27-.61-4.46-1.84c-1.2-1.22-1.8-2.7-1.8-4.43s.6-3.2,1.8-4.43c1.2-1.22,2.69-1.84,4.46-1.84s3.2.61,4.43,1.84c1.22,1.22,1.84,2.7,1.84,4.43ZM233.29,300.34v24.77c0,4.13-1.46,7.64-4.39,10.55s-6.43,4.36-10.51,4.36c-.48,0-.72-.24-.72-.72s.24-.72.72-.72c3.7,0,6.86-1.31,9.5-3.92,2.64-2.62,3.96-5.8,3.96-9.54v-24.77c0-1.25-.43-2.3-1.3-3.17-.86-.86-1.92-1.3-3.17-1.3h-.36c-1.01,0-1.92.31-2.74.94-.14.1-.29.14-.43.14-.48,0-.72-.24-.72-.72,0-.24.1-.43.29-.58,1.06-.82,2.26-1.22,3.6-1.22h.36c1.63,0,3.02.58,4.18,1.73,1.15,1.15,1.73,2.54,1.73,4.18h0Z"/>
    <path class="st2" d="M282.25,317.84c0,2.78-1,5.16-2.99,7.13s-4.36,2.95-7.09,2.95h-.5c-1.2,0-2.35-.19-3.46-.58-2.45.91-4.97,1.37-7.56,1.37-5.9,0-10.94-2.09-15.12-6.26-4.18-4.18-6.26-9.22-6.26-15.12s2.09-10.87,6.26-15.05c4.18-4.18,9.22-6.26,15.12-6.26,2.26,0,4.44.34,6.55,1.01,1.39-.67,2.88-1.01,4.46-1.01h.5c2.74,0,5.1.98,7.09,2.95,1.99,1.97,2.99,4.34,2.99,7.13v21.74h.01ZM278.65,317.84v-21.74c0-1.78-.64-3.3-1.91-4.57s-2.8-1.91-4.57-1.91h-.5c-1.54,0-2.88.48-4.03,1.44-2.26-.96-4.58-1.44-6.98-1.44-4.94,0-9.14,1.73-12.6,5.18-3.46,3.46-5.18,7.63-5.18,12.53s1.73,9.14,5.18,12.6c3.46,3.46,7.66,5.18,12.6,5.18,2.69,0,5.23-.58,7.63-1.73,1.06.62,2.18.94,3.38.94h.5c1.78,0,3.3-.64,4.57-1.91,1.27-1.27,1.91-2.79,1.91-4.57h0ZM260.65,322.3c-4.13,0-7.64-1.46-10.55-4.39-2.9-2.93-4.36-6.43-4.36-10.51,0-.48.24-.72.72-.72s.72.24.72.72c0,3.7,1.31,6.87,3.92,9.5,2.62,2.64,5.8,3.96,9.54,3.96.48,0,.72.24.72.72s-.24.72-.72.72h.01ZM265.11,303.51c0,1.73-.61,3.2-1.84,4.43-1.22,1.22-2.7,1.84-4.43,1.84s-3.2-.61-4.43-1.84-1.84-2.7-1.84-4.43.61-3.2,1.84-4.43,2.7-1.84,4.43-1.84,3.21.61,4.43,1.84c1.22,1.22,1.84,2.7,1.84,4.43ZM275.77,315.75c0,1.63-.58,3.02-1.73,4.18-1.15,1.15-2.54,1.73-4.18,1.73h-.36c-.48,0-.72-.24-.72-.72s.24-.72.72-.72h.36c1.25,0,2.3-.43,3.17-1.3.86-.86,1.3-1.92,1.3-3.17v-17.42c0-.48.24-.72.72-.72s.72.24.72.72v17.42h0Z"/>
    <path class="st2" d="M302.27,317.84c0,2.78-1,5.16-2.99,7.13-1.99,1.97-4.36,2.95-7.09,2.95h-.5c-2.78,0-5.16-.98-7.13-2.95-1.97-1.97-2.95-4.34-2.95-7.13v-37.51c0-2.78.98-5.16,2.95-7.13s4.34-2.95,7.13-2.95h.5c2.74,0,5.1.98,7.09,2.95,1.99,1.97,2.99,4.34,2.99,7.13v37.51ZM298.67,317.84v-37.51c0-1.77-.64-3.3-1.91-4.57s-2.8-1.91-4.57-1.91h-.5c-1.78,0-3.3.64-4.57,1.91-1.27,1.27-1.91,2.8-1.91,4.57v37.51c0,1.78.64,3.3,1.91,4.57s2.8,1.91,4.57,1.91h.5c1.78,0,3.3-.64,4.57-1.91,1.27-1.27,1.91-2.79,1.91-4.57ZM297.3,314.09c0,1.63-.58,3.02-1.73,4.18s-2.54,1.73-4.18,1.73h-.36c-.48,0-.72-.24-.72-.72s.24-.72.72-.72h.36c1.25,0,2.3-.43,3.17-1.3.86-.86,1.3-1.92,1.3-3.17v-30.02c0-1.25-.43-2.3-1.3-3.17s-1.92-1.3-3.17-1.3h-.36c-.48,0-.72-.24-.72-.72s.24-.72.72-.72h.36c1.63,0,3.02.58,4.18,1.73s1.73,2.54,1.73,4.18v30.02h0Z"/>
    <path class="st2" d="M322.28,317.84c0,2.78-1,5.16-2.99,7.13-1.99,1.97-4.36,2.95-7.09,2.95h-.5c-2.78,0-5.16-.98-7.13-2.95-1.97-1.97-2.95-4.34-2.95-7.13v-37.51c0-2.78.98-5.16,2.95-7.13,1.97-1.97,4.34-2.95,7.13-2.95h.5c2.74,0,5.1.98,7.09,2.95,1.99,1.97,2.99,4.34,2.99,7.13v37.51ZM318.68,317.84v-37.51c0-1.77-.64-3.3-1.91-4.57s-2.8-1.91-4.57-1.91h-.5c-1.78,0-3.3.64-4.57,1.91-1.27,1.27-1.91,2.8-1.91,4.57v37.51c0,1.78.63,3.3,1.91,4.57,1.27,1.27,2.79,1.91,4.57,1.91h.5c1.78,0,3.3-.64,4.57-1.91,1.27-1.27,1.91-2.79,1.91-4.57ZM317.31,314.09c0,1.63-.58,3.02-1.73,4.18-1.15,1.15-2.54,1.73-4.18,1.73h-.36c-.48,0-.72-.24-.72-.72s.24-.72.72-.72h.36c1.25,0,2.3-.43,3.17-1.3s1.3-1.92,1.3-3.17v-30.02c0-1.25-.43-2.3-1.3-3.17s-1.92-1.3-3.17-1.3h-.36c-.48,0-.72-.24-.72-.72s.24-.72.72-.72h.36c1.63,0,3.02.58,4.18,1.73,1.15,1.15,1.73,2.54,1.73,4.18v30.02h0Z"/>
    <path class="st2" d="M360.87,300.2c0,4.99-2.02,8.9-6.05,11.74,1.71.48,3.1,1.45,4.2,2.92,1.09,1.46,1.64,3.11,1.64,4.93,0,2.3-.8,4.25-2.41,5.83-1.61,1.58-3.54,2.38-5.8,2.38h-9.86c-5.76,0-10.69-2.05-14.8-6.16s-6.16-9.06-6.16-14.87,2.05-10.69,6.16-14.8c4.1-4.1,9.04-6.16,14.8-6.16h4.1c3.89,0,7.22,1.39,10.01,4.18,2.78,2.78,4.18,6.12,4.18,10.01h-.01ZM357.27,300.2c0-2.93-1.03-5.42-3.1-7.49s-4.56-3.1-7.49-3.1h-4.1c-4.8,0-8.89,1.69-12.28,5.08-3.38,3.38-5.08,7.48-5.08,12.28s1.69,8.96,5.08,12.35c3.38,3.38,7.48,5.08,12.28,5.08h9.86c1.25,0,2.33-.44,3.24-1.33s1.37-1.98,1.37-3.28-.44-2.33-1.33-3.24c-.88-.91-1.97-1.37-3.26-1.37h-9.25c-1.43,0-2.15-.72-2.15-2.16s.72-2.16,2.15-2.16h3.51c2.91,0,5.4-1.03,7.45-3.1,2.05-2.06,3.08-4.58,3.08-7.56h.02ZM350.22,320.21c.48,0,.72.24.72.72s-.24.72-.72.72h-7.85c-4.03,0-7.49-1.43-10.37-4.28-2.88-2.85-4.32-6.3-4.32-10.33,0-.48.24-.72.72-.72s.72.24.72.72c0,3.6,1.3,6.7,3.89,9.29,2.59,2.59,5.71,3.89,9.36,3.89h7.85ZM343.38,303.51c0,1.73-.61,3.2-1.84,4.43-1.22,1.22-2.7,1.84-4.43,1.84s-3.26-.61-4.46-1.84c-1.2-1.22-1.8-2.7-1.8-4.43s.6-3.2,1.8-4.43c1.2-1.22,2.69-1.84,4.46-1.84s3.2.61,4.43,1.84c1.22,1.22,1.84,2.7,1.84,4.43ZM354.83,301.56c0,.48-.24.72-.72.72s-.72-.24-.72-.72c0-2.11-.77-3.93-2.3-5.47-1.54-1.54-3.36-2.3-5.47-2.3h-3.24c-.48,0-.72-.24-.72-.72s.24-.72.72-.72h3.24c2.54,0,4.72.9,6.52,2.7s2.7,3.97,2.7,6.52h-.01Z"/>
    <path class="st2" d="M402.99,311.59c0,2.3-.82,4.26-2.45,5.89s-3.58,2.44-5.83,2.44-4.27-.8-5.9-2.41-2.45-3.56-2.45-5.87c0-1.2-.5-1.8-1.51-1.8s-1.56.5-1.51,1.51c0-.05,0,.83,0,2.63v3.85c0,2.78-.98,5.16-2.95,7.13-1.97,1.97-4.34,2.95-7.13,2.95h-2.95c-2.78,0-5.16-.98-7.13-2.95-1.97-1.97-2.95-4.34-2.95-7.13v-21.74c0-2.78.98-5.16,2.95-7.13s4.34-2.95,7.13-2.95h.5c1.49,0,2.9.31,4.25.94,2.16-.62,4.34-.94,6.55-.94,5.81,0,10.81,2.11,15.01,6.32,4.2,4.22,6.32,9.32,6.37,15.3v3.95h0ZM399.39,311.59v-3.95c.05-5.03-1.68-9.29-5.18-12.78-3.5-3.49-7.7-5.24-12.6-5.24-2.4,0-4.7.46-6.91,1.37-1.15-.91-2.45-1.37-3.89-1.37h-.5c-1.78,0-3.3.64-4.57,1.91s-1.91,2.8-1.91,4.57v21.74c0,1.78.63,3.3,1.91,4.57,1.27,1.27,2.8,1.91,4.57,1.91h2.95c1.78,0,3.3-.64,4.57-1.91s1.91-2.79,1.91-4.57v-6.48c0-1.39.49-2.59,1.48-3.6.98-1.01,2.2-1.51,3.64-1.51s2.59.5,3.6,1.51,1.51,2.21,1.51,3.6v.29c0,1.3.46,2.4,1.37,3.31s2.04,1.37,3.38,1.37,2.4-.45,3.31-1.36,1.37-2.04,1.37-3.38h-.01ZM373.47,321.58h-.94c-1.63,0-3.02-.58-4.18-1.73-1.15-1.15-1.73-2.55-1.73-4.19v-17.47c0-1.64.58-3.03,1.73-4.19,1.15-1.15,2.54-1.73,4.18-1.73h.43c.48,0,.72.24.72.72s-.24.72-.72.72h-.43c-1.2,0-2.25.45-3.13,1.33s-1.33,1.94-1.33,3.14v17.47c0,1.2.44,2.25,1.33,3.14.89.89,1.93,1.33,3.13,1.33h.94c.48,0,.72.24.72.72s-.24.72-.72.72v.02ZM396.51,307.47c0,.48-.24.72-.72.72s-.72-.24-.72-.72c.09-3.79-1.2-7.03-3.89-9.72-2.69-2.69-5.88-4.03-9.58-4.03-1.78,0-3.53.36-5.26,1.08-.67.29-1.01.07-1.01-.65,0-.33.14-.55.43-.65,1.92-.82,3.86-1.22,5.83-1.22,4.08,0,7.61,1.48,10.58,4.43,2.98,2.95,4.42,6.54,4.32,10.76h.02Z"/>
    <path class="st2" d="M445.11,296.09v31.03c0,5.86-2.09,10.87-6.28,15.05-4.18,4.18-9.23,6.26-15.15,6.26-6.44,0-11.66-2.38-15.65-7.13-2.26-2.21-3.39-4.73-3.39-7.56,0-4.03,1.87-7.32,5.62-9.86-5.28-4.27-7.92-9.79-7.92-16.56v-12.96c0-2.3.8-4.27,2.41-5.9,1.61-1.63,3.56-2.45,5.87-2.45s4.27.8,5.9,2.41,2.45,3.56,2.45,5.87v7.56c0,1.01.5,1.51,1.51,1.51s1.51-.5,1.51-1.51v-5.76c0-2.78.98-5.16,2.95-7.13s4.34-2.95,7.13-2.95h2.95c2.78,0,5.16.98,7.13,2.95,1.97,1.97,2.95,4.34,2.95,7.13h0ZM441.51,296.09c0-1.78-.64-3.3-1.91-4.57s-2.8-1.91-4.57-1.91h-2.95c-1.83,0-3.36.64-4.61,1.91-1.25,1.27-1.87,2.8-1.87,4.57v5.76c0,1.39-.5,2.59-1.51,3.6-1.01,1.01-2.21,1.51-3.6,1.51s-2.65-.5-3.64-1.51c-.98-1.01-1.48-2.21-1.48-3.6v-7.56c0-1.3-.47-2.4-1.4-3.31-.94-.91-2.05-1.37-3.35-1.37s-2.4.46-3.31,1.37-1.37,2.02-1.37,3.31v12.96c0,4.9,1.73,9.08,5.18,12.56,3.46,3.48,7.66,5.22,12.6,5.22,1.44,0,2.88-.17,4.32-.5v4.18c0,.77-.26,1.43-.79,1.98s-1.18.83-1.94.83c-.86,0-1.51-.41-1.94-1.22-.86-1.44-1.34-2.21-1.44-2.3-1.49-1.63-3.34-2.45-5.54-2.45s-3.98.74-5.47,2.23c-1.63,1.58-2.45,3.5-2.45,5.76,0,2.11.75,3.89,2.24,5.33.58.72,1.78,1.82,3.61,3.31,2.98,1.78,6.11,2.66,9.38,2.66,4.91,0,9.1-1.73,12.59-5.18,3.49-3.46,5.23-7.63,5.23-12.53v-31.03h0ZM412.93,317.33c.1.14.14.29.14.43,0,.48-.26.72-.79.72-.19,0-.38-.1-.58-.29-1.97-2.64-2.95-5.62-2.95-8.93v-10.37c0-.48.24-.72.72-.72s.72.24.72.72v10.37c0,2.98.91,5.66,2.74,8.06h0ZM438.63,324.39c-.24,4.37-1.66,8.02-4.25,10.94-2.78,3.12-6.36,4.68-10.73,4.68-4.66,0-8.3-1.68-10.94-5.04-.1-.14-.14-.31-.14-.5,0-.43.24-.65.72-.65.24,0,.42.07.54.22.12.14.4.46.83.94,2.3,2.4,5.3,3.6,9,3.6,3.98,0,7.22-1.44,9.72-4.32,2.3-2.69,3.58-6.02,3.82-10.01.05-.43.29-.65.72-.65.53,0,.77.26.72.79h0ZM438.63,300.34v10.73c0,.48-.24.72-.72.72s-.72-.24-.72-.72v-10.73c0-1.25-.43-2.3-1.3-3.17s-1.92-1.3-3.17-1.3h-.94c-.48,0-.72-.24-.72-.72s.24-.72.72-.72h.94c1.63,0,3.02.58,4.18,1.73s1.73,2.54,1.73,4.18h0Z"/>
  </g>
</svg>