<?xml version="1.0" encoding="utf-8"?>
<!-- Generator: Adobe Illustrator 27.6.0, SVG Export Plug-In . SVG Version: 6.00 Build 0)  -->
<svg version="1.1" id="Layer_1" xmlns="http://www.w3.org/2000/svg" xmlns:xlink="http://www.w3.org/1999/xlink" x="0px" y="0px"
	 viewBox="0 0 300 300" style="enable-background:new 0 0 300 300;" xml:space="preserve">
<path id="bags" class="icon-base" d="M239.28,143.81c-5.91-13.18-13.18-37.73-13.18-37.73l-2.27-0.91c0,0-7.27-34.09-20.91-58.18
	s-33.63-35-51.36-35c-25.45,0-38.63,18.64-47.72,34.09S87.47,99.72,87.47,99.72s-1.82-0.45-1.82,0.91c0,1.36-24.09,55-25.91,93.63
	s17.73,96.81,79.54,100.45c61.81,3.64,87.27-20,99.99-53.63C252,207.44,245.19,156.99,239.28,143.81z M209.51,103.13
	c0,0-4.55,44.54-18.64,65.45s-34.09,25.45-45.91,23.18s-39.54-20.91-42.72-50.91c-3.18-30-1.82-42.27-1.82-42.27l-1.82,0.45
	c0,0,7.73-39.54,18.18-53.18s20.91-23.64,35-23.18c14.09,0.45,32.27,13.18,40.91,28.18c8.64,15,20,52.27,20,52.27H209.51z"/>
</svg>
