<?xml version="1.0" encoding="utf-8"?>
<!-- Generator: Adobe Illustrator 27.6.0, SVG Export Plug-In . SVG Version: 6.00 Build 0)  -->
<svg version="1.1" id="Layer_1" xmlns="http://www.w3.org/2000/svg" xmlns:xlink="http://www.w3.org/1999/xlink" x="0px" y="0px"
	 viewBox="0 0 300 300" style="enable-background:new 0 0 300 300;" xml:space="preserve">
<path id="boots" class="icon-base" d="M32.71,13.68c0,0,8.74,67.9,5.38,83.36S23.3,142.08,23.3,150.15s4.71,10.76,2.02,16.13
	c-2.69,5.38-2.69,5.38-2.69,5.38s-6.05,101.51-2.02,106.89s55.13,10.08,60.5,8.74c0.67-11.43-0.67-63.86,1.34-65.21
	s13.45-1.34,37.65,24.2s26.89,36.97,40.34,41.01c13.45,4.03,45.04,4.71,81.34-6.05s48.4-20.84,48.4-24.2
	c0-3.36-9.41-38.99-12.1-39.66c1.34-6.05-2.69-23.53-13.45-27.56c-10.76-4.03-45.04,4.03-53.11-2.69s-24.87-20.84-33.61-79.33
	s-13.45-95.46-14.79-95.46S58.93,10.99,32.71,13.68z"/>
</svg>
