<?xml version="1.0" encoding="utf-8"?>
<!-- Generator: Adobe Illustrator 27.6.0, SVG Export Plug-In . SVG Version: 6.00 Build 0)  -->
<svg version="1.1" id="Layer_1" xmlns="http://www.w3.org/2000/svg" xmlns:xlink="http://www.w3.org/1999/xlink" x="0px" y="0px"
	 viewBox="0 0 300 300" style="enable-background:new 0 0 300 300;" xml:space="preserve">
<path id="pumps" class="icon-base" d="M284.43,253.32c1.59,1.59-2.65,7.96-4.24,10.61c-1.59,2.65-56.78,22.82-90.74,26
	s-38.74-3.71-48.82-9.02c-10.08-5.31-13.27-20.16-29.18-42.98s-29.71-37.14-40.33-36.61s-7.43,14.33-6.9,22.82
	c0.53,8.49-1.06,56.25-1.06,56.25h-13.8c0,0-0.53-15.92-1.06-40.86c-0.53-24.94-13.27-40.86-23.88-58.9s-8.49-38.2-7.43-42.45
	c0,0,13.27,2.65,32.37,11.14c19.1,8.49,39.27,26,40.86,23.88c1.59-2.12-29.18-45.63-33.96-50.41c-4.78-4.78-14.86-18.04-14.33-20.69
	s10.08-10.61,11.14-11.14c1.06-0.53,43.51,55.18,47.23,61.02c3.71,5.84,38.2,72.7,48.29,80.12s20.16,12.2,41.92,3.71
	c21.76-8.49,28.65-10.08,27.59-10.61s29.98,4.51,29.98,4.51s8.76,2.92,14.59,12.47c5.84,9.55,8.49,18.04,8.49,18.04L284.43,253.32z"
	/>
</svg>
