<?xml version="1.0" encoding="utf-8"?>
<!-- Generator: Adobe Illustrator 27.6.0, SVG Export Plug-In . SVG Version: 6.00 Build 0)  -->
<svg version="1.1" id="Layer_1" xmlns="http://www.w3.org/2000/svg" xmlns:xlink="http://www.w3.org/1999/xlink" x="0px" y="0px"
	 viewBox="0 0 300 300" style="enable-background:new 0 0 300 300;" xml:space="preserve">
<path id="sandals" class="icon-base" d="M293.43,247.59c-1.13-1.13-1.7-1.7-3.4-2.27c0.57-3.4-1.7-16.45-13.05-19.85
	c-11.34-3.4-27.23-3.4-28.93-5.1c-1.7-1.7-9.64-3.97-12.48-4.54s-9.08,0-9.08,0s-5.1-2.84-7.94-4.54c-2.84-1.7-6.81-1.7-6.81-1.7
	s-8.51-8.51-11.34-9.64c-2.84-1.13-2.27-1.7-2.27-1.7s-3.4-7.37-7.37-10.78c-3.97-3.4-8.51-6.81-8.51-6.81s-16.45-15.31-16.45-15.88
	c0-0.57,1.7-6.24,0-8.51c-1.7-2.27-11.91-18.72-13.05-19.85c-1.13-1.13-5.67-0.57-6.81-1.7c-1.13-1.13-7.37,1.7-7.37,6.24
	s-1.7,3.97-1.7,3.97l-4.54,2.27c0,0-2.84-2.84-3.4-2.84s-22.12,10.21-22.12,10.21s-3.97,1.13-4.54,3.97
	c-0.57,2.84,1.7,4.54,1.7,4.54l-6.81,2.27c0,0-5.67,4.54-17.58,0.57c-11.91-3.97-46.51-27.79-48.21-27.79
	c-1.7,0-10.78,17.58-10.21,18.72c0.57,1.13,27.23,18.15,33.46,22.69c6.24,4.54,9.64,14.18,7.94,20.99
	c-1.7,6.81-7.94,15.88-7.94,15.88s-34.03-6.24-34.6-7.94c-0.57-1.7-7.37-2.27-8.22-1.42c-1.45,1.45,1.7,72.03,1.7,72.03
	s5.67,2.84,6.81,2.27s2.27-5.1,2.27-5.1l5.1,0.57l0.57,5.1l18.72,0.57l1.7-5.1h5.1l2.27,4.54h15.31c0,0,0.57-38.57,1.7-39.7
	c1.13-1.13,1.13-2.27,5.67-0.57c4.54,1.7,9.08,1.13,35.73,14.18c26.66,13.05,33.46,17.02,33.46,17.02l3.97,5.1
	c0,0,18.43,4.82,19.57,3.69c1.13-1.13,1.13-2.84,1.13-2.84h6.24l0.57,3.4c0,0,5.67,0.57,10.21,0.57c4.54,0,10.21-0.57,10.21-0.57
	l0.57-3.4l6.24-0.57l1.7,3.4l19.85-1.7l0.57-3.97l6.81-0.57l1.13,3.97l20.99-3.97l0.57-3.4l5.67-1.13l1.13,2.84
	c0,0,12.48-2.27,19.85-5.1c7.37-2.84,8.51-4.54,8.51-4.54S294.57,248.72,293.43,247.59z M83.57,226.03l-8.51-3.4
	c0,0,7.37-24.39,10.21-23.82S83.57,226.03,83.57,226.03z M145.39,231.71c-6.81,9.08-11.34,14.75-11.34,14.75l-28.93-13.61
	c0,0-3.97-18.15-1.7-30.06c2.27-11.91,12.48-18.72,12.48-18.72s1.7,2.84,4.54,1.7c2.84-1.13,23.26-13.05,23.26-13.05
	s1.13-2.27,0-5.1c2.27-2.27,10.21-6.24,10.21-6.24s7.37,5.1,13.61,13.05s13.61,19.28,13.61,19.28S152.2,222.63,145.39,231.71z
	 M178.86,231.14c-7.37,9.64-19.85,30.63-19.85,30.63l-3.4-2.27c0,0,7.37-13.05,14.18-23.26c6.81-10.21,19.85-29.49,19.85-29.49
	l4.54,3.4C194.17,210.15,186.23,221.5,178.86,231.14z M201.54,244.18c-3.97,8.51-11.91,22.12-11.91,22.12h-5.1
	c-0.57-2.27,4.54-11.91,9.64-22.69c5.1-10.78,13.05-24.39,13.05-24.39l3.4,2.27C210.62,221.5,205.51,235.68,201.54,244.18z
	 M228.77,242.48c-0.57,5.67-7.37,22.12-7.37,22.12l-3.4,0.57l-1.7-1.7c0,0,2.84-13.05,5.1-18.15c2.27-5.1,4.54-19.28,4.54-19.28
	l5.1-0.57C231.04,225.47,229.34,236.81,228.77,242.48z M248.05,260.07l-4.54,0.57c0,0,1.7-6.81,2.27-11.91s1.13-13.05,0-20.42
	c3.4,0.57,5.1,3.97,5.1,10.78C250.89,245.89,248.05,260.07,248.05,260.07z"/>
</svg>
